<svg width="397" height="361" viewBox="0 0 397 361" fill="none" xmlns="http://www.w3.org/2000/svg">
<g filter="url(#filter0_d_40_74)">
<path fill-rule="evenodd" clip-rule="evenodd" d="M330.82 163.328L329.395 164.68L328.017 166.007L326.69 167.31L325.413 168.59L324.188 169.85L323.016 171.092L321.898 172.317L320.834 173.528L319.824 174.726L318.868 175.912L317.966 177.09L317.116 178.26L316.317 179.424L315.57 180.584L314.871 181.741L314.219 182.898L313.613 184.054L313.05 185.213L312.528 186.373L312.045 187.538L311.598 188.708L311.184 189.883L310.801 191.064L310.445 192.253L310.115 193.449L309.807 194.653L309.518 195.866L309.246 197.087L308.988 198.316L308.741 199.555L308.504 200.803L308.272 202.059L308.046 203.325L307.822 204.599L307.598 205.882L307.374 207.174L307.148 208.475L306.919 209.785L306.687 211.104L306.45 212.433L306.209 213.771L305.962 215.119L305.709 216.476L305.449 217.844L305.183 219.223L304.909 220.612L304.627 222.011L304.337 223.422L304.038 224.844L303.73 226.278L303.413 227.723L303.086 229.181L302.749 230.651L302.402 232.133L302.044 233.629L301.674 235.138L301.293 236.66L300.901 238.196L300.495 239.747L300.078 241.312L299.646 242.891L299.202 244.485L298.742 246.095L298.269 247.72L297.779 249.361L297.274 251.017L296.752 252.689L296.212 254.377L295.654 256.081L295.078 257.801L294.481 259.537L293.863 261.289L293.224 263.056L292.562 264.838L291.876 266.636L291.166 268.448L290.429 270.274L289.666 272.114L288.874 273.967L288.053 275.832L287.202 277.709L286.319 279.596L285.404 281.493L284.454 283.399L283.469 285.312L282.449 287.232L281.39 289.157L280.294 291.086L279.157 293.017L277.981 294.949L276.762 296.881L275.501 298.81L274.197 300.736L272.848 302.655L271.455 304.568L270.016 306.471L268.53 308.362L266.998 310.241L265.419 312.104L263.791 313.95L262.115 315.775L260.391 317.578L258.618 319.356L256.796 321.107L254.925 322.828L253.006 324.516L251.037 326.169L249.021 327.784L246.957 329.358L244.846 330.889L242.689 332.374L240.486 333.811L238.239 335.197L235.949 336.53L233.617 337.807L231.244 339.026L228.833 340.185L226.385 341.281L223.902 342.313L221.385 343.278L218.836 344.174L216.259 345L213.654 345.754L211.025 346.433L208.373 347.036L205.701 347.562L203.013 348.008L200.309 348.373L197.594 348.656L194.87 348.855L192.139 348.97L189.406 349L186.673 348.944L183.942 348.803L181.217 348.575L178.502 348.261L175.798 347.862L173.109 347.378L170.438 346.81L167.789 346.159L165.162 345.427L162.562 344.614L159.992 343.722L157.452 342.753L154.947 341.71L152.478 340.593L150.048 339.406L147.658 338.152L145.311 336.832L143.008 335.45L140.751 334.008L138.54 332.509L136.378 330.957L134.266 329.355L132.204 327.705L130.192 326.012L128.232 324.278L126.324 322.508L124.468 320.703L122.663 318.869L120.91 317.008L119.209 315.123L117.557 313.218L115.956 311.297L114.403 309.362L112.899 307.416L111.441 305.464L110.028 303.507L108.66 301.55L107.333 299.593L106.048 297.642L104.801 295.697L103.591 293.761L102.416 291.837L101.273 289.927L100.162 288.033L99.0797 286.157L98.0239 284.3L96.9924 282.464L95.9832 280.651L94.9941 278.862L94.0229 277.097L93.0675 275.358L92.1257 273.645L91.1956 271.96L90.2751 270.302L89.3625 268.671L88.4563 267.068L87.5553 265.492L86.6583 263.942L85.7648 262.417L84.874 260.917L83.9858 259.439L83.1001 257.982L82.2169 256.545L81.3367 255.127L80.46 253.724L79.5875 252.337L78.72 250.963L77.8587 249.6L77.0046 248.247L76.1588 246.902L75.3227 245.563L74.4977 244.23L73.6849 242.901L72.8857 241.574L72.1014 240.249L71.3331 238.925L70.5819 237.6L69.8487 236.275L69.1343 234.949L68.4392 233.622L67.7637 232.293L67.108 230.963L66.4717 229.632L65.8544 228.3L65.2552 226.968L64.6735 225.636L64.1082 224.305L63.5584 222.975L63.023 221.647L62.5008 220.321L61.9905 218.997L61.4908 217.677L61.0002 216.36L60.5173 215.047L60.0406 213.739L59.5684 212.434L59.0991 211.135L58.6312 209.84L58.163 208.551L57.6927 207.267L57.2188 205.987L56.7396 204.713L56.2535 203.444L55.7589 202.18L55.2543 200.92L54.7383 199.665L54.2094 198.413L53.6663 197.165L53.1078 195.919L52.5328 194.676L51.9402 193.434L51.3291 192.193L50.6988 190.952L50.0485 189.711L49.3778 188.468L48.6861 187.223L47.9734 185.974L47.2394 184.721L46.4841 183.463L45.7078 182.199L44.9108 180.928L44.0934 179.649L43.2563 178.36L42.4002 177.062L41.5261 175.752L40.6348 174.431L39.7276 173.096L38.8056 171.748L37.8702 170.386L36.9229 169.008L35.9652 167.614L34.9988 166.203L34.0254 164.774L33.0468 163.328L32.0648 161.863L31.0814 160.379L30.0985 158.875L29.118 157.352L28.142 155.809L27.1725 154.245L26.2115 152.661L25.261 151.056L24.3232 149.431L23.4003 147.785L22.4946 146.119L21.6089 144.433L20.7456 142.728L19.9075 141.003L19.0972 139.259L18.3175 137.497L17.5711 135.718L16.8606 133.922L16.1889 132.111L15.5584 130.285L14.9716 128.445L14.4311 126.594L13.9391 124.731L13.498 122.858L13.1098 120.977L12.7766 119.089L12.5004 117.196L12.283 115.298L12.126 113.399L12.0312 111.499L12 109.599L12.0339 107.703L12.1341 105.812L12.3021 103.926L12.539 102.05L12.846 100.184L13.2243 98.3299L13.675 96.4908L14.199 94.6685L14.7973 92.8651L15.4705 91.0828L16.2187 89.3236L17.0421 87.5896L17.9403 85.8828L18.9131 84.205L19.9596 82.5581L21.0789 80.9436L22.2698 79.3634L23.5311 77.8187L24.8612 76.3112L26.2582 74.8419L27.7203 73.412L29.2455 72.0227L30.8314 70.6747L32.4758 69.3688L34.1761 68.1057L35.9299 66.8858L37.7344 65.7096L39.5869 64.5772L41.4846 63.4887L43.4246 62.4441L45.4042 61.4433L47.4204 60.4859L49.4703 59.5717L51.5511 58.7L53.6598 57.8703L55.7937 57.0818L57.95 56.3338L60.1259 55.6254L62.3187 54.9555L64.5259 54.3231L66.745 53.727L68.9735 53.1662L71.2091 52.6393L73.4495 52.1451L75.6926 51.6822L77.9365 51.2492L80.1791 50.8448L82.4188 50.4675L84.6537 50.116L86.8825 49.7887L89.1035 49.4843L91.3156 49.2013L93.5175 48.9384L95.7081 48.6941L97.8865 48.467L100.052 48.2558L102.203 48.0592L104.34 47.8758L106.462 47.7045L108.569 47.544L110.66 47.3931L112.735 47.2507L114.794 47.1157L116.836 46.987L118.862 46.8637L120.873 46.7448L122.867 46.6293L124.845 46.5161L126.807 46.4042L128.754 46.2924L130.685 46.1796L132.602 46.0646L134.503 45.9463L136.39 45.8235L138.263 45.6951L140.123 45.5597L141.97 45.4164L143.804 45.2639L145.627 45.1012L147.439 44.9271L149.24 44.7406L151.033 44.5407L152.816 44.3264L154.593 44.0967L156.363 43.8509L158.128 43.5879L159.888 43.3072L161.646 43.0078L163.401 42.6893L165.157 42.3509L166.912 41.9922L168.67 41.6127L170.432 41.2121L172.198 40.79L173.97 40.3462L175.75 39.8806L177.539 39.3932L179.339 38.8841L181.151 38.3534L182.976 37.8014L184.816 37.2285L186.673 36.6352L188.547 36.0221L190.44 35.3899L192.354 34.7394L194.29 34.0716L196.248 33.3874L198.231 32.6879L200.24 31.9744L202.274 31.2481L204.337 30.5105L206.427 29.7629L208.547 29.007L210.697 28.2443L212.878 27.4767L215.09 26.7057L217.334 25.9334L219.61 25.1615L221.918 24.3919L224.26 23.6268L226.633 22.8681L229.04 22.118L231.479 21.3784L233.951 20.6515L236.454 19.9395L238.988 19.2445L241.554 18.5687L244.149 17.9142L246.774 17.2832L249.427 16.6778L252.107 16.1001L254.813 15.5522L257.544 15.0363L260.298 14.5542L263.074 14.1079L265.87 13.6995L268.685 13.3306L271.516 13.0032L274.363 12.719L277.223 12.4795L280.094 12.2865L282.974 12.1413L285.861 12.0453L288.753 12L291.647 12.0064L294.542 12.0658L297.435 12.1791L300.323 12.3472L303.206 12.5709L306.079 12.8509L308.942 13.1879L311.791 13.5822L314.624 14.0342L317.439 14.5442L320.234 15.1123L323.006 15.7389L325.754 16.4241L328.473 17.1681L331.162 17.9713L333.818 18.8339L336.438 19.756L339.019 20.7377L341.558 21.7792L344.052 22.8804L346.499 24.0412L348.896 25.2614L351.239 26.5407L353.525 27.8788L355.752 29.2751L357.917 30.7291L360.017 32.2399L362.049 33.8069L364.011 35.4289L365.9 37.1051L367.713 38.8343L369.449 40.6152L371.104 42.4464L372.676 44.3266L374.163 46.2543L375.564 48.2279L376.875 50.2458L378.094 52.3062L379.221 54.4074L380.252 56.5477L381.186 58.7252L382.021 60.9379L382.755 63.1839L383.387 65.4608L383.916 67.7664L384.342 70.0983L384.663 72.4538L384.88 74.8304L384.992 77.2255L385 79.6361L384.905 82.0596L384.707 84.4931L384.407 86.9337L384.008 89.3784L383.51 91.8245L382.916 94.2691L382.229 96.7092L381.45 99.1421L380.582 101.565L379.629 103.975L378.594 106.37L377.48 108.747L376.292 111.104L375.032 113.438L373.705 115.747L372.316 118.029L370.868 120.283L369.366 122.505L367.816 124.695L366.22 126.851L364.586 128.972L362.916 131.056L361.217 133.103L359.492 135.111L357.748 137.08L355.988 139.009L354.218 140.898L352.443 142.747L350.667 144.556L348.895 146.324L347.13 148.053L345.379 149.743L343.644 151.394L341.931 153.007L340.242 154.583L338.581 156.123L336.953 157.628L335.36 159.1L333.805 160.539L332.29 161.948L330.82 163.328Z" fill="#FAA312"/>
</g>
<defs>
<filter id="filter0_d_40_74" x="0" y="0" width="397" height="361" filterUnits="userSpaceOnUse" color-interpolation-filters="sRGB">
<feFlood flood-opacity="0" result="BackgroundImageFix"/>
<feColorMatrix in="SourceAlpha" type="matrix" values="0 0 0 0 0 0 0 0 0 0 0 0 0 0 0 0 0 0 127 0" result="hardAlpha"/>
<feOffset/>
<feGaussianBlur stdDeviation="6"/>
<feComposite in2="hardAlpha" operator="out"/>
<feColorMatrix type="matrix" values="0 0 0 0 0 0 0 0 0 0 0 0 0 0 0 0 0 0 0.25 0"/>
<feBlend mode="normal" in2="BackgroundImageFix" result="effect1_dropShadow_40_74"/>
<feBlend mode="normal" in="SourceGraphic" in2="effect1_dropShadow_40_74" result="shape"/>
</filter>
</defs>
</svg>
