<svg width="354" height="387" viewBox="0 0 354 387" fill="none" xmlns="http://www.w3.org/2000/svg">
<path fill-rule="evenodd" clip-rule="evenodd" d="M350.895 156.729V156.729L350.717 158.549L350.541 160.365L350.367 162.178L350.194 163.988L350.022 165.797L349.849 167.604L349.676 169.41L349.501 171.216L349.324 173.023L349.144 174.832L348.96 176.641L348.773 178.454L348.583 180.269L348.392 182.088L348.2 183.913L348.009 185.743L347.821 187.581L347.638 189.428L347.462 191.285L347.295 193.155L347.139 195.039L346.996 196.94L346.868 198.859L346.756 200.799L346.66 202.762L346.583 204.75L346.524 206.766L346.483 208.812L346.46 210.889L346.454 212.999L346.464 215.144L346.488 217.326L346.525 219.545L346.572 221.805L346.629 224.104L346.692 226.446L346.76 228.829L346.828 231.256L346.896 233.725L346.958 236.238L347.013 238.794L347.057 241.394L347.087 244.035L347.098 246.718L347.088 249.441L347.052 252.203L346.987 255.002L346.889 257.837L346.755 260.705L346.58 263.604L346.362 266.532L346.096 269.485L345.78 272.46L345.409 275.456L344.981 278.467L344.492 281.491L343.94 284.523L343.322 287.56L342.635 290.599L341.877 293.634L341.046 296.661L340.139 299.677L339.157 302.677L338.096 305.657L336.955 308.612L335.735 311.538L334.434 314.432L333.051 317.288L331.587 320.103L330.043 322.872L328.417 325.592L326.712 328.259L324.927 330.87L323.064 333.421L321.125 335.909L319.11 338.331L317.022 340.684L314.862 342.966L312.634 345.174L310.338 347.306L307.977 349.362L305.555 351.338L303.073 353.234L300.534 355.049L297.942 356.783L295.3 358.437L292.611 360.013L289.878 361.513L287.106 362.94L284.298 364.299L281.457 365.593L278.585 366.826L275.686 368.005L272.763 369.132L269.816 370.213L266.849 371.252L263.862 372.254L260.857 373.223L257.835 374.162L254.795 375.074L251.739 375.961L248.667 376.824L245.577 377.665L242.47 378.482L239.346 379.276L236.205 380.046L233.045 380.791L229.868 381.51L226.672 382.199L223.458 382.858L220.225 383.482L216.975 384.069L213.706 384.615L210.421 385.116L207.12 385.569L203.803 385.968L200.473 386.309L197.13 386.588L193.778 386.799L190.417 386.938L187.051 387L183.681 386.98L180.312 386.875L176.946 386.678L173.587 386.386L170.238 385.996L166.903 385.503L163.587 384.904L160.293 384.196L157.026 383.376L153.789 382.443L150.588 381.394L147.427 380.229L144.311 378.946L141.243 377.545L138.228 376.027L135.27 374.392L132.373 372.641L129.542 370.777L126.779 368.8L124.088 366.715L121.473 364.523L118.935 362.229L116.478 359.836L114.105 357.348L111.816 354.771L109.614 352.108L107.499 349.364L105.474 346.546L103.538 343.658L101.691 340.706L99.9344 337.695L98.2667 334.632L96.6874 331.522L95.1956 328.37L93.7897 325.183L92.4682 321.965L91.2288 318.724L90.0682 315.465L88.9826 312.196L87.9675 308.923L87.0177 305.653L86.1273 302.394L85.29 299.152L84.4989 295.933L83.7468 292.746L83.0259 289.594L82.3283 286.485L81.6456 283.424L80.9694 280.414L80.291 277.461L79.6014 274.568L78.8918 271.738L78.153 268.974L77.3758 266.278L76.5512 263.651L75.6705 261.095L74.7258 258.609L73.7097 256.191L72.6158 253.84L71.4384 251.553L70.1729 249.326L68.8155 247.155L67.3634 245.035L65.815 242.96L64.1696 240.925L62.4279 238.923L60.5912 236.946L58.6623 234.989L56.6448 233.044L54.5435 231.104L52.3642 229.161L50.1134 227.209L47.7989 225.24L45.4291 223.247L43.0131 221.225L40.5611 219.167L38.0835 217.067L35.5914 214.92L33.0964 212.723L30.6103 210.47L28.1453 208.158L25.7136 205.785L23.3275 203.349L20.9993 200.849L18.741 198.283L16.5645 195.652L14.4812 192.957L12.5023 190.2L10.6383 187.382L8.89908 184.505L7.29395 181.575L5.83145 178.594L4.51929 175.566L3.36434 172.498L2.37254 169.393L1.54887 166.258L0.897323 163.098L0.420867 159.919L0.121453 156.729L0 153.532L0.0564059 150.335L0.289556 147.145L0.697349 143.968L1.27672 140.81L2.0237 137.676L2.93343 134.572L4.00024 131.504L5.21771 128.475L6.57874 125.491L8.07604 122.555L9.70253 119.671L11.4513 116.843L13.3157 114.073L15.2891 111.364L17.3651 108.719L19.5376 106.14L21.8003 103.628L24.1473 101.186L26.5727 98.8155L29.0709 96.5169L31.6361 94.2916L34.2631 92.1402L36.9464 90.0636L39.681 88.062L42.462 86.1357L45.2847 84.2848L48.1444 82.5093L51.037 80.809L53.958 79.1836L56.9032 77.6323L59.868 76.1545L62.848 74.7489L65.8387 73.4143L68.8356 72.149L71.8342 70.9512L74.83 69.8188L77.8186 68.7494L80.7956 67.7405L83.7567 66.7892L86.6979 65.8925L89.6151 65.0472L92.5043 64.2498L95.362 63.4968L98.1847 62.7843L100.969 62.1084L103.712 61.4651L106.411 60.8503L109.063 60.2597L111.666 59.6891L114.218 59.134L116.718 58.5903L119.164 58.0536L121.554 57.5195L123.889 56.9839L126.168 56.4427L128.391 55.8917L130.557 55.3271L132.668 54.7452L134.723 54.1423L136.725 53.5151L138.675 52.8603L140.574 52.1749L142.424 51.4563L144.227 50.702L145.986 49.9096L147.703 49.0773L149.381 48.2033L151.023 47.2862L152.631 46.3249L154.209 45.3186L155.761 44.2669L157.289 43.1694L158.797 42.0262L160.288 40.8379L161.767 39.605L163.237 38.3286L164.7 37.0099L166.161 35.6505L167.623 34.2522L169.09 32.8171L170.565 31.3476L172.051 29.8463L173.551 28.3162L175.068 26.7613L176.606 25.1864L178.169 23.5969L179.759 21.9991L181.379 20.3999L183.032 18.8066L184.72 17.2269L186.445 15.6688L188.209 14.1407L190.013 12.6508L191.857 11.2077L193.743 9.81955L195.668 8.49473L197.634 7.24119L199.637 6.06664L201.678 4.97841L203.753 3.98342L205.86 3.08805L207.997 2.29809L210.159 1.6186L212.343 1.05386L214.546 0.607383L216.763 0.281824L218.99 0.0790295L221.223 0L223.458 0.0449038L225.689 0.213087L227.913 0.503091L230.125 0.912685L232.322 1.43889L234.499 2.07803L236.653 2.82576L238.781 3.67712L240.879 4.62661L242.945 5.66823L244.977 6.79556L246.972 8.00184L248.93 9.28001L250.848 10.6228L252.727 12.0227L254.566 13.4723L256.365 14.9639L258.125 16.49L259.847 18.0432L261.532 19.6162L263.181 21.2019L264.798 22.7936L266.383 24.3847L267.939 25.9691L269.47 27.5411L270.978 29.0955L272.467 30.6273L273.938 32.1324L275.397 33.607L276.846 35.0478L278.289 36.4521L279.728 37.8178L281.168 39.1434L282.611 40.4276L284.06 41.67L285.519 42.8705L286.989 44.0296L288.474 45.1481L289.975 46.2273L291.494 47.2688L293.033 48.2749L294.594 49.2478L296.178 50.1903L297.785 51.1052L299.416 51.9957L301.071 52.8651L302.751 53.7169L304.455 54.5546L306.182 55.3822L307.93 56.2043L309.698 57.0255L311.483 57.851L313.281 58.6859L315.09 59.5351L316.904 60.4038L318.721 61.2968L320.534 62.2188L322.34 63.174L324.132 64.1664L325.908 65.1996L327.66 66.2768L329.385 67.4006L331.076 68.5734L332.73 69.7971L334.341 71.0729L335.906 72.4018L337.419 73.7843L338.876 75.2204L340.274 76.7098L341.61 78.2515L342.88 79.8442L344.083 81.4864L345.215 83.1759L346.277 84.9104L347.265 86.6873L348.181 88.5039L349.023 90.3571L349.793 92.2436L350.49 94.1603L351.116 96.1037L351.674 98.0706L352.163 100.057L352.588 102.061L352.95 104.078L353.252 106.105L353.498 108.14L353.691 110.179L353.834 112.22L353.93 114.26L353.985 116.298L354 118.33L353.98 120.356L353.929 122.373L353.85 124.38L353.747 126.377L353.623 128.363L353.481 130.336L353.324 132.296L353.155 134.244L352.977 136.178L352.792 138.1L352.602 140.009L352.41 141.906L352.215 143.792L352.021 145.667L351.827 147.531L351.636 149.386L351.446 151.232L351.26 153.071L351.076 154.903L350.895 156.729" fill="white"/>
</svg>
