<svg width="326" height="376" viewBox="0 0 326 376" fill="none" xmlns="http://www.w3.org/2000/svg">
<g filter="url(#filter0_d_40_75)">
<path fill-rule="evenodd" clip-rule="evenodd" d="M293.007 134.14L294.129 135.842L295.228 137.561L296.302 139.298L297.35 141.053L298.372 142.825L299.366 144.615L300.332 146.421L301.27 148.245L302.178 150.085L303.056 151.941L303.902 153.813L304.716 155.7L305.497 157.603L306.244 159.52L306.955 161.451L307.631 163.396L308.271 165.354L308.873 167.324L309.438 169.305L309.966 171.298L310.455 173.3L310.906 175.311L311.32 177.33L311.695 179.357L312.032 181.39L312.331 183.429L312.593 185.473L312.818 187.521L313.006 189.572L313.156 191.625L313.27 193.68L313.347 195.736L313.386 197.792L313.389 199.848L313.354 201.903L313.282 203.955L313.175 206.005L313.034 208.051L312.859 210.093L312.652 212.131L312.414 214.163L312.149 216.19L311.857 218.212L311.542 220.228L311.205 222.239L310.849 224.244L310.476 226.244L310.09 228.24L309.692 230.232L309.285 232.221L308.871 234.208L308.454 236.195L308.035 238.181L307.616 240.169L307.2 242.161L306.789 244.156L306.383 246.158L305.985 248.168L305.596 250.188L305.217 252.219L304.847 254.263L304.489 256.321L304.141 258.396L303.804 260.489L303.477 262.602L303.16 264.735L302.852 266.89L302.551 269.069L302.256 271.273L301.966 273.501L301.677 275.755L301.389 278.036L301.098 280.343L300.802 282.677L300.498 285.037L300.184 287.424L299.856 289.835L299.511 292.271L299.147 294.731L298.759 297.212L298.344 299.714L297.899 302.233L297.418 304.767L296.898 307.312L296.333 309.865L295.72 312.421L295.054 314.976L294.33 317.525L293.545 320.061L292.694 322.581L291.774 325.077L290.782 327.545L289.713 329.977L288.567 332.368L287.34 334.712L286.031 337.001L284.638 339.231L283.161 341.394L281.599 343.485L279.952 345.497L278.22 347.425L276.404 349.263L274.506 351.006L272.528 352.648L270.47 354.185L268.335 355.61L266.127 356.921L263.847 358.112L261.501 359.18L259.091 360.123L256.622 360.938L254.1 361.623L251.529 362.179L248.915 362.603L246.262 362.898L243.577 363.063L240.866 363.101L238.134 363.014L235.388 362.805L232.632 362.478L229.874 362.036L227.117 361.485L224.368 360.829L221.633 360.075L218.915 359.229L216.22 358.296L213.552 357.284L210.915 356.2L208.313 355.052L205.748 353.847L203.225 352.592L200.744 351.296L198.309 349.967L195.921 348.611L193.581 347.237L191.289 345.853L189.047 344.466L186.853 343.082L184.708 341.71L182.611 340.355L180.559 339.024L178.553 337.722L176.589 336.456L174.666 335.229L172.781 334.047L170.931 332.914L169.114 331.832L167.327 330.805L165.566 329.836L163.828 328.926L162.111 328.076L160.41 327.287L158.722 326.561L157.044 325.895L155.372 325.291L153.704 324.748L152.037 324.265L150.366 323.841L148.69 323.475L147.004 323.165L145.307 322.909L143.595 322.706L141.866 322.554L140.118 322.449L138.348 322.39L136.554 322.374L134.734 322.397L132.886 322.457L131.009 322.55L129.101 322.673L127.16 322.823L125.187 322.996L123.179 323.189L121.137 323.398L119.059 323.619L116.945 323.849L114.794 324.085L112.608 324.323L110.384 324.56L108.125 324.792L105.83 325.016L103.499 325.229L101.134 325.426L98.7357 325.605L96.3053 325.76L93.8445 325.889L91.3553 325.987L88.8398 326.051L86.3007 326.076L83.7406 326.058L81.1626 325.994L78.5699 325.879L75.9662 325.71L73.3551 325.483L70.7408 325.195L68.1275 324.842L65.5196 324.421L62.9218 323.929L60.3388 323.364L57.7755 322.722L55.2371 322.002L52.7286 321.201L50.2552 320.318L47.8222 319.352L45.4348 318.301L43.0981 317.165L40.8173 315.944L38.5976 314.636L36.4437 313.244L34.3605 311.767L32.3526 310.206L30.4243 308.564L28.5798 306.841L26.8229 305.039L25.1571 303.162L23.5856 301.212L22.1112 299.192L20.7365 297.105L19.4633 294.955L18.2934 292.746L17.2278 290.481L16.2673 288.166L15.412 285.803L14.6616 283.399L14.0155 280.957L13.4723 278.482L13.0305 275.978L12.6886 273.451L12.445 270.905L12.2979 268.343L12.2456 265.769L12.2862 263.188L12.4174 260.603L12.6372 258.018L12.9431 255.437L13.3323 252.862L13.8021 250.297L14.3495 247.746L14.9711 245.211L15.6636 242.695L16.4231 240.2L17.2459 237.73L18.1279 235.287L19.0648 232.873L20.0525 230.489L21.0864 228.138L22.162 225.82L23.2748 223.538L24.4203 221.293L25.5941 219.084L26.7916 216.913L28.0088 214.779L29.2415 212.684L30.4857 210.626L31.7375 208.606L32.9928 206.623L34.2477 204.677L35.4984 202.766L36.741 200.889L37.972 199.046L39.1877 197.234L40.3849 195.453L41.5604 193.7L42.7111 191.973L43.8343 190.271L44.9275 188.591L45.9884 186.931L47.0149 185.289L48.0052 183.662L48.958 182.047L49.872 180.444L50.7462 178.848L51.5801 177.257L52.3733 175.669L53.1259 174.081L53.8379 172.492L54.51 170.898L55.143 169.297L55.7379 167.687L56.296 166.067L56.8188 164.433L57.3081 162.785L57.7658 161.121L58.1941 159.438L58.5953 157.737L58.9717 156.015L59.326 154.272L59.6609 152.506L59.9791 150.717L60.2833 148.905L60.5765 147.069L60.8616 145.208L61.1414 143.323L61.4189 141.414L61.6968 139.48L61.978 137.523L62.2652 135.542L62.5611 133.538L62.8682 131.512L63.1891 129.464L63.5259 127.395L63.8808 125.305L64.2556 123.196L64.6519 121.067L65.0713 118.919L65.5151 116.753L65.9844 114.569L66.4804 112.368L67.004 110.148L67.5561 107.912L68.1376 105.659L68.7491 103.389L69.3915 101.102L70.0656 98.7987L70.7722 96.4794L71.512 94.1442L72.286 91.7936L73.0952 89.4281L73.9406 87.0485L74.8235 84.6556L75.7451 82.2506L76.7068 79.8348L77.7102 77.41L78.7568 74.9783L79.8485 72.542L80.9871 70.1041L82.1745 67.6675L83.4123 65.2357L84.7022 62.8119L86.0457 60.3997L87.4439 58.0027L88.8982 55.6246L90.4095 53.2692L91.9786 50.9404L93.6062 48.6422L95.2927 46.3785L97.0385 44.1536L98.8437 41.9714L100.708 39.8361L102.632 37.7519L104.614 35.7229L106.653 33.7532L108.75 31.847L110.903 30.0081L113.11 28.2407L115.37 26.5485L117.682 24.9353L120.043 23.4047L122.451 21.9603L124.905 20.6053L127.401 19.3429L129.937 18.176L132.511 17.1073L135.119 16.1394L137.758 15.2744L140.426 14.5144L143.118 13.8609L145.832 13.3155L148.563 12.8792L151.309 12.5526L154.066 12.3363L156.83 12.2304L159.597 12.2345L162.364 12.348L165.128 12.5699L167.885 12.899L170.63 13.3334L173.362 13.8711L176.077 14.5098L178.771 15.2465L181.442 16.0782L184.087 17.0016L186.703 18.0127L189.288 19.1081L191.84 20.2841L194.357 21.5371L196.837 22.8639L199.278 24.2608L201.678 25.7246L204.037 27.2519L206.352 28.8391L208.623 30.4828L210.849 32.1794L213.029 33.9253L215.162 35.7169L217.248 37.5505L219.288 39.4222L221.28 41.3282L223.226 43.2647L225.126 45.2278L226.979 47.2136L228.788 49.2184L230.553 51.2382L232.275 53.2694L233.956 55.3084L235.597 57.3516L237.2 59.3959L238.766 61.4379L240.298 63.4749L241.797 65.5042L243.266 67.5232L244.706 69.5296L246.119 71.5213L247.508 73.4964L248.876 75.453L250.223 77.3897L251.553 79.3051L252.867 81.1983L254.168 83.0684L255.458 84.9149L256.738 86.7374L258.012 88.5359L259.28 90.3105L260.543 92.0616L261.805 93.7899L263.065 95.4962L264.325 97.1815L265.587 98.8471L266.849 100.494L268.115 102.125L269.382 103.74L270.652 105.342L271.925 106.933L273.2 108.515L274.476 110.089L275.754 111.658L277.031 113.224L278.308 114.788L279.583 116.354L280.854 117.923L282.12 119.496L283.379 121.076L284.63 122.665L285.871 124.264L287.1 125.874L288.316 127.497L289.516 129.134L290.699 130.787L291.864 132.455L293.007 134.14Z" fill="white"/>
</g>
<defs>
<filter id="filter0_d_40_75" x="0.245636" y="0.230392" width="325.143" height="374.871" filterUnits="userSpaceOnUse" color-interpolation-filters="sRGB">
<feFlood flood-opacity="0" result="BackgroundImageFix"/>
<feColorMatrix in="SourceAlpha" type="matrix" values="0 0 0 0 0 0 0 0 0 0 0 0 0 0 0 0 0 0 127 0" result="hardAlpha"/>
<feOffset/>
<feGaussianBlur stdDeviation="6"/>
<feComposite in2="hardAlpha" operator="out"/>
<feColorMatrix type="matrix" values="0 0 0 0 0 0 0 0 0 0 0 0 0 0 0 0 0 0 0.25 0"/>
<feBlend mode="normal" in2="BackgroundImageFix" result="effect1_dropShadow_40_75"/>
<feBlend mode="normal" in="SourceGraphic" in2="effect1_dropShadow_40_75" result="shape"/>
</filter>
</defs>
</svg>
